# xmcd
# Track frame offsets:
# 150
# 18477
# 33190
# 47057
# 61622
#
# Disc length: 1042 seconds
# Revision: 0
# Processed by: cddbd v1.4PL0 Copyright (c) Steve Scherf et al.
# Submitted via: VisiTrax 2.9.3.171 - For more info visit www.synapsa.com
#
DISCID=32041005
DTITLE=The Bushwackers - Bushwacked! EP
DYEAR=1995
DGENRE=
TTITLE0=Henry's Men
TTITLE1=Shelter
TTITLE2=Waltzing Matilda
TTITLE3=Bushwacked
TTITLE4=New Broom
EXTD=
EXTT0=
EXTT1=
EXTT2=
EXTT3=
EXTT4=
PLAYORDER=
